PathFileType	4	(X/Y/Z)	D:\TRACE\v60_Jaco2_6-2-23\BothDRS_Motion1_3-v60.trc
DataRate	CameraRate	NumFrames	NumMarkers	Units	OrigDataRate	OrigDataStartFrame	OrigNumFrames
100.00	100.00	      24	9	mm	100.00	5305	      7073
Frame#	Time	front left toe			Front right toe			aft left toe			aft right toe			Arm			FL body			FR body			AL Body			AR Body			
		X1	Y1	Z1	X2	Y2	Z2	X3	Y3	Z3	X4	Y4	Z4	X5	Y5	Z5	X6	Y6	Z6	X7	Y7	Z7	X8	Y8	Z8	X9	Y9	Z9	

5305	53.040	-143.57378	19.01028	-315.80728	235.06622	135.12413	-350.26559	-106.12232	128.22304	293.50812	271.20853	15.18802	286.96539	123.08205	1116.33044	-649.17096	-31.23639	573.65369	-459.41870	129.05237	570.42816	-468.40884	19.60529	572.81708	485.61142	175.89049	563.67731	478.28738	
5306	53.050	-142.79224	19.22587	-315.73907	236.82098	142.39690	-350.87125	-102.60087	134.72165	293.66589	272.06439	14.41724	286.90955	123.92603	1116.21155	-649.17242	-29.57941	573.47729	-458.93491	129.41467	570.63824	-468.05286	22.12794	571.87543	485.52933	179.38588	563.25000	480.72513	
5307	53.060	-141.64688	19.41073	-315.62418	238.73299	147.17711	-351.01648	-101.33587	141.37279	292.89011	272.66275	14.31519	286.85117	124.98466	1116.11609	-648.94159	-29.75342	574.04810	-459.24060	130.22504	570.73285	-468.14633	24.21805	571.68939	485.38931	179.69951	562.77112	478.21872	
5308	53.070	-140.94339	19.65417	-315.52399	240.87218	149.94759	-350.92688	-99.33363	144.80553	293.03677	273.74561	14.15184	286.90479	126.32577	1115.99695	-648.81415	-28.56590	574.25500	-458.75284	131.04553	571.01367	-468.19781	26.63213	571.59210	485.60654	182.03799	562.77338	478.21756	
5309	53.080	-140.21890	19.99129	-315.17859	243.23201	149.77348	-350.53204	-97.73225	145.42636	293.79300	274.55859	13.89336	286.87799	126.79261	1116.52185	-648.75500	-27.95432	574.41010	-458.71704	132.12794	571.20807	-468.50345	28.54279	571.74738	485.76254	184.17934	562.69452	478.72968	
5310	53.090	-139.14891	20.25905	-315.08591	244.99335	147.79825	-350.07327	-95.43038	143.20792	295.05099	275.43439	13.52153	286.90152	127.18137	1116.88928	-648.60071	-27.53105	574.61633	-458.60422	133.06618	571.06177	-468.48438	30.43193	572.06006	485.84863	185.19148	563.02124	478.13644	
5311	53.100	-138.45421	20.51977	-314.74326	246.70564	144.10393	-349.80823	-92.96511	139.59627	296.52484	276.15225	13.48956	286.87570	127.54921	1117.08801	-648.59955	-26.75036	574.80206	-458.49423	133.37309	571.04303	-468.06754	31.99683	572.11182	486.04938	188.06473	562.83160	478.83875	
5312	53.110	-137.79428	20.59497	-314.62781	247.91441	139.48973	-349.53287	-88.84438	134.58951	298.73438	276.85873	12.94994	287.01599	128.15166	1117.12598	-648.55035	-25.49573	575.08252	-458.12363	134.02899	571.18042	-468.13095	34.06695	572.11462	486.20816	189.60394	562.83124	478.25876	
5313	53.120	-137.20689	21.03159	-314.54581	249.07776	134.03528	-349.45065	-86.24430	130.37436	300.41788	277.44885	12.56336	287.19397	129.53802	1117.10278	-648.51501	-24.45791	575.30902	-458.00055	135.58087	571.66602	-468.58838	36.38155	571.87646	486.36423	191.68849	562.81274	478.03348	
5314	53.130	-136.47980	21.72843	-314.46625	250.89188	127.77996	-349.24106	-84.30660	125.94337	301.72192	278.20184	12.41747	287.23788	130.29861	1117.34583	-648.58539	-24.14332	575.67877	-457.89880	136.40402	571.86511	-468.73419	38.21783	571.76855	486.31027	193.85745	562.82947	478.57574	
5315	53.140	-135.77551	21.92266	-314.28918	252.93761	121.08761	-349.24792	-79.95358	118.21329	302.92844	279.18936	12.36637	287.34082	131.03969	1117.61011	-648.58618	-22.65309	575.96857	-457.44797	136.49545	571.82214	-468.37549	40.40430	571.99982	486.22672	195.60344	562.35345	476.13098	
5316	53.150	-135.00696	21.80833	-314.00085	255.25963	113.99734	-349.78104	-78.20376	111.89214	303.14075	279.77252	11.93923	287.19281	132.93756	1117.99963	-648.26007	-22.65855	576.17719	-457.80295	137.19717	571.97400	-468.58929	41.99641	571.98273	486.14911	197.57677	562.01038	476.02765	
5317	53.160	-134.10097	21.83990	-313.88193	257.39258	106.78735	-350.67999	-75.85053	104.82062	303.02634	280.38126	11.59072	287.24622	133.70639	1118.05957	-648.23352	-21.43734	576.12946	-457.62463	138.47711	572.09027	-469.05432	43.81113	571.74286	486.08817	199.70247	561.70123	475.68195	
5318	53.170	-133.81555	22.06601	-313.74194	259.46252	99.26563	-351.43805	-71.55966	96.09308	302.82672	281.43677	11.48837	287.41467	134.49812	1118.25513	-648.22528	-20.30248	576.17639	-457.57782	139.55653	572.34528	-469.41870	46.31063	571.41534	486.05838	201.90332	561.53076	475.61340	
5319	53.180	-133.15002	22.65331	-313.54047	260.94623	90.90263	-352.30960	-69.17020	89.11408	301.89249	282.19937	11.28924	287.41003	135.62944	1118.50208	-648.20416	-19.85332	576.74506	-457.65457	139.61230	572.29034	-469.52271	48.24453	571.38165	486.04474	203.95387	561.01733	475.31036	
5320	53.190	-132.62361	23.05171	-313.52643	262.72522	82.89224	-353.39691	-66.26018	80.64227	300.83133	282.80902	10.95005	287.40390	136.71579	1118.87354	-648.00421	-18.27949	577.06232	-457.47238	140.80341	572.72784	-469.79800	50.11495	571.01990	485.93436	206.12614	560.86212	474.78180	
5321	53.200	-131.88370	23.07967	-313.32654	264.32556	74.76778	-354.53979	-63.58347	72.68441	299.99780	283.23868	10.52157	287.58337	137.29062	1119.19263	-648.03314	-18.49653	577.68268	-458.07816	142.19510	573.11115	-470.26291	52.02800	570.50586	485.72067	208.28862	560.46722	474.41336	
5322	53.210	-130.88821	23.19411	-313.26111	266.26782	66.50247	-355.29443	-60.60387	63.75070	299.48105	283.75571	10.33613	287.74829	138.41711	1119.69836	-647.87268	-17.19102	577.90845	-457.99402	142.31358	573.18512	-469.74841	53.94574	569.98993	485.49725	209.92087	560.01245	474.01190	
5323	53.220	-130.52379	23.40754	-312.91983	268.32407	58.80633	-355.89365	-58.56211	55.16402	299.04578	284.62494	9.86075	287.61554	139.06177	1120.11401	-647.88580	-16.16904	577.98022	-458.32687	143.77657	573.65015	-470.72137	56.33522	569.53717	485.31537	211.93719	559.49536	473.36520	
5324	53.230	-129.97183	23.93161	-312.89667	270.46072	51.26614	-356.60110	-56.25021	47.75199	298.91238	285.00562	9.47250	287.62738	139.79903	1120.49353	-647.99902	-15.30463	578.29474	-458.48373	144.23824	573.81372	-470.97098	58.12722	569.54675	484.89932	214.07416	559.19757	472.79825	
5325	53.240	-129.54355	24.16194	-312.81152	272.45523	44.26788	-357.33542	-54.03650	40.42373	298.42062	285.78043	9.27092	287.70386	140.64085	1121.06799	-648.02350	-14.03073	578.72534	-458.70520	144.94109	574.05670	-471.54718	60.57145	569.23450	484.39798	216.20065	559.05780	472.41928	
5326	53.250	-129.13852	24.63266	-312.76801	273.67856	38.03642	-358.58252	-51.90441	33.55608	297.66559	286.64893	8.95956	287.89233	141.56099	1121.61194	-647.87219	-13.47396	578.98212	-459.10989	146.54381	574.66577	-472.57599	62.68146	568.82697	484.20193	218.30818	558.79193	471.62601	
5327	53.260	-128.51805	25.08281	-312.67551	275.24396	31.70099	-359.44492	-49.86193	27.25821	296.58563	287.28268	8.87112	287.78558	142.15895	1122.08252	-648.36847	-12.31168	579.35870	-459.52878	147.01167	574.68121	-472.48837	64.86622	568.78925	483.84045	220.32196	558.62048	470.99661	
5328	53.270	-127.80998	25.18781	-312.59647	276.05957	28.91235	-361.84189	-47.97459	20.71117	295.52875	287.67361	8.73197	287.77399	142.67889	1122.54224	-648.79706	-10.93372	579.54144	-459.70111	148.48045	575.38470	-473.56915	66.79227	568.48401	482.90021	222.45227	558.30133	470.21359	
